<?xml version="1.0" encoding="utf-8"?>
<!-- Generator: Adobe Adobe Illustrator 28.5.0, SVG Export Plug-In . SVG Version: 6.00 Build 0)  -->
<svg version="1.1" id="Layer_1" xmlns="http://www.w3.org/2000/svg" xmlns:xlink="http://www.w3.org/1999/xlink" x="0px" y="0px"
	 viewBox="0 0 40 40" style="enable-background:new 0 0 40 40; background: white;" xml:space="preserve">
<style type="text/css">
	.st0{fill:#4F43AF;}
</style>
<g>
	<path class="st0" d="M31.01,37.13h-6.87c-2.61,0-4.74-2.33-4.74-5.19v-1.91h1.33v1.91c0,2.06,1.53,3.73,3.4,3.73h6.87
		c1.88,0,3.4-1.67,3.4-3.73V14.18L20,3.16L5.58,14.18v17.76c0,2.06,1.53,3.73,3.4,3.73h6.2v1.46h-6.2c-2.61,0-4.74-2.33-4.74-5.19
		V13.41L20,1.38l15.75,12.04v18.53C35.75,34.8,33.62,37.13,31.01,37.13z"/>
	<g>
		<path class="st0" d="M26.01,21.8v2.38c0,3.63-2.69,6.59-6.01,6.59s-6.01-2.95-6.01-6.59V21.8h0.9c0.16,0,0.31,0.04,0.44,0.11v2.27
			c0,2.82,2.1,5.12,4.67,5.12s4.67-2.3,4.67-5.12V21.9c0.13-0.07,0.28-0.11,0.44-0.11H26.01z"/>
		<path class="st0" d="M15.93,22.94c0,0.46-0.25,0.86-0.61,1.04c-0.13,0.07-0.28,0.11-0.44,0.11h-0.9V21.8h0.9
			c0.16,0,0.31,0.04,0.44,0.11C15.68,22.09,15.93,22.48,15.93,22.94z"/>
		<path class="st0" d="M26.01,21.8v2.29h-0.9c-0.16,0-0.31-0.04-0.44-0.11c-0.36-0.18-0.61-0.58-0.61-1.04
			c0-0.46,0.25-0.86,0.61-1.04c0.13-0.07,0.28-0.11,0.44-0.11H26.01z"/>
	</g>
	<ellipse class="st0" cx="15.17" cy="36.31" rx="2.11" ry="2.31"/>
	<g>
		<rect x="17.11" y="9.99" class="st0" width="2.34" height="2.56"/>
		<rect x="20.55" y="9.99" class="st0" width="2.34" height="2.56"/>
		<rect x="17.11" y="13.78" class="st0" width="2.34" height="2.56"/>
		<rect x="20.55" y="13.78" class="st0" width="2.34" height="2.56"/>
	</g>
</g>
</svg>
