<?xml version="1.0" encoding="utf-8"?>
<!-- Generator: Adobe Adobe Illustrator 28.5.0, SVG Export Plug-In . SVG Version: 6.00 Build 0)  -->
<svg version="1.1" id="Layer_1" xmlns="http://www.w3.org/2000/svg" xmlns:xlink="http://www.w3.org/1999/xlink" x="0px" y="0px"
	 viewBox="0 0 32 32" style="enable-background:new 0 0 32 32 ;" xml:space="preserve">
<style type="text/css">
	.st0{fill:#4F43AF;stroke:#4F43AF;stroke-width:0.6849;stroke-miterlimit:10;}
	.st1{fill:#4F43AF;}
</style>
<g>
	<path class="st0" d="M22.99,26.12h-4.36c-1.66,0-3.01-1.38-3.01-3.07v-1.13h0.85v1.13c0,1.21,0.97,2.2,2.16,2.2h4.36
		c1.19,0,2.16-0.99,2.16-2.2V12.56L16,6.05l-9.15,6.51v10.49c0,1.21,0.97,2.2,2.16,2.2h3.94v0.86H9.01C7.35,26.12,6,24.74,6,23.05
		V12.11L16,5l10,7.11v10.94C26,24.74,24.65,26.12,22.99,26.12z"/>
	<g>
		<path class="st0" d="M19.81,17.06v1.4c0,2.14-1.71,3.89-3.81,3.89s-3.81-1.75-3.81-3.89v-1.4h0.57c0.1,0,0.19,0.02,0.28,0.06v1.34
			c0,1.67,1.33,3.03,2.97,3.03s2.97-1.36,2.97-3.03v-1.34c0.08-0.04,0.18-0.06,0.28-0.06H19.81z"/>
		<path class="st0" d="M13.42,17.74c0,0.27-0.16,0.51-0.38,0.61c-0.08,0.04-0.18,0.06-0.28,0.06h-0.57v-1.35h0.57
			c0.1,0,0.19,0.02,0.28,0.06C13.26,17.23,13.42,17.47,13.42,17.74z"/>
		<path class="st0" d="M19.81,17.06v1.35h-0.57c-0.1,0-0.19-0.02-0.28-0.06c-0.23-0.11-0.38-0.34-0.38-0.61s0.16-0.51,0.38-0.61
			c0.08-0.04,0.18-0.06,0.28-0.06H19.81z"/>
	</g>
	<ellipse class="st1" cx="12.94" cy="25.63" rx="1.34" ry="1.37"/>
	<g>
		<rect x="13.45" y="10.09" class="st0" width="1.48" height="1.51"/>
		<rect x="16.35" y="10.09" class="st0" width="1.48" height="1.51"/>
		<rect x="13.45" y="12.98" class="st0" width="1.48" height="1.51"/>
		<rect x="16.35" y="12.98" class="st0" width="1.48" height="1.51"/>
	</g>
</g>
</svg>
