<?xml version="1.0" encoding="utf-8"?>
<!-- Generator: Adobe Adobe Illustrator 28.5.0, SVG Export Plug-In . SVG Version: 6.00 Build 0)  -->
<svg version="1.1" id="Layer_1" xmlns="http://www.w3.org/2000/svg" xmlns:xlink="http://www.w3.org/1999/xlink" x="0px" y="0px"
	 viewBox="0 0 500 500" style="enable-background:new 0 0 500 500;" xml:space="preserve">
<style type="text/css">
	.st0{fill:#4F43AF;}
</style>
<g>
	<path class="st0" d="M389.84,451.9H302.6c-33.17,0-60.16-27.46-60.16-61.22V368.2h16.95v22.48c0,24.24,19.38,43.97,43.21,43.97
		h87.24c23.82,0,43.21-19.72,43.21-43.97V181.35L250,51.53L66.95,181.35v209.33c0,24.24,19.38,43.97,43.21,43.97h78.77v17.25h-78.77
		C76.99,451.9,50,424.44,50,390.68V172.35L250,30.5l200,141.85v218.33C450,424.44,423.01,451.9,389.84,451.9z"/>
	<g>
		<path class="st0" d="M326.27,271.17v28.03c0,42.8-34.22,77.62-76.28,77.62S173.71,342,173.71,299.2v-28.03h11.38
			c1.99,0,3.88,0.45,5.57,1.25v26.78c0,33.29,26.61,60.37,59.33,60.37s59.33-27.08,59.33-60.37v-26.78c1.69-0.8,3.58-1.25,5.57-1.25
			H326.27z"/>
		<path class="st0" d="M198.35,284.67c0,5.43-3.16,10.09-7.69,12.25c-1.7,0.8-3.58,1.25-5.57,1.25h-11.38v-26.99h11.38
			c1.99,0,3.88,0.45,5.57,1.25C195.2,274.58,198.35,279.24,198.35,284.67z"/>
		<path class="st0" d="M326.27,271.17v26.99h-11.38c-1.99,0-3.88-0.45-5.57-1.25c-4.53-2.16-7.69-6.81-7.69-12.25
			c0-5.43,3.16-10.09,7.69-12.25c1.69-0.8,3.58-1.25,5.57-1.25H326.27z"/>
	</g>
	<ellipse class="st0" cx="188.71" cy="442.22" rx="26.81" ry="27.28"/>
	<g>
		<rect x="213.32" y="131.99" class="st0" width="29.66" height="30.18"/>
		<rect x="257.02" y="131.99" class="st0" width="29.66" height="30.18"/>
		<rect x="213.32" y="176.7" class="st0" width="29.66" height="30.18"/>
		<rect x="257.02" y="176.7" class="st0" width="29.66" height="30.18"/>
	</g>
</g>
</svg>
