<?xml version="1.0" encoding="utf-8"?>
<!-- Generator: Adobe Adobe Illustrator 28.6.0, SVG Export Plug-In . SVG Version: 6.00 Build 0)  -->
<svg version="1.1" id="Layer_1" xmlns="http://www.w3.org/2000/svg" xmlns:xlink="http://www.w3.org/1999/xlink" x="0px" y="0px"
	 viewBox="0 0 500 500" style="enable-background:new 0 0 500 500;" xml:space="preserve">
<style type="text/css">
	.st0{fill:#4F43AF;}
</style>
<g>
	<path class="st0" d="M250,7L28,163.95v239.27c0,38.97,31.25,70.67,69.67,70.67h55.58c5.52,11.54,17.23,19.11,29.99,19.11
		c18.38,0,33.34-15.17,33.34-33.82c0-18.65-14.96-33.82-33.34-33.82c-13.7,0-26.02,8.66-30.99,21.4H97.67
		c-23.67,0-42.93-19.53-42.93-43.55V178.11L250,40.06l195.26,138.05v225.11c0,24.01-19.26,43.55-42.93,43.55H307.3
		c-23.67,0-42.93-19.53-42.93-43.55v-12.08c41.78-7.05,72.85-43.92,72.85-87.25v-34.63h-16.53c-2.71,0-5.34,0.59-7.82,1.75
		c-6.54,3.1-10.76,9.81-10.76,17.1c0,6.36,3.22,12.28,8.38,15.74v0.04c0,33.83-27.14,61.36-60.49,61.36
		c-33.35,0-60.49-27.53-60.49-61.36v-0.04c5.16-3.46,8.38-9.39,8.38-15.74c0-7.29-4.22-14-10.78-17.11
		c-2.47-1.16-5.1-1.74-7.81-1.74h-16.53v34.63c0,22.07,8.09,43.22,22.78,59.56c13.74,15.28,32.12,25.14,52.09,28.03v11.75
		c0,38.97,31.25,70.67,69.67,70.67h95.03c38.41,0,69.67-31.7,69.67-70.67V163.95L250,7z"/>
	<rect x="210.05" y="122.32" class="st0" width="32.3" height="32.77"/>
	<rect x="257.65" y="122.32" class="st0" width="32.3" height="32.77"/>
	<rect x="210.05" y="170.87" class="st0" width="32.3" height="32.77"/>
	<rect x="257.65" y="170.87" class="st0" width="32.3" height="32.77"/>
</g>
</svg>
